{
    "asset" : {
        "generator" : "Khronos glTF Blender I/O v1.5.17",
        "version" : "2.0"
    },
    "scene" : 0,
    "scenes" : [
        {
            "name" : "Scene",
            "nodes" : [
                0,
                1
            ]
        }
    ],
    "nodes" : [
        {
            "name" : "Camera",
            "rotation" : [
                -0.47850853204727173,
                -0.5170083045959473,
                0.4524887204170227,
                -0.5467960834503174
            ],
            "translation" : [
                197.6066131591797,
                27.85186767578125,
                13.843379974365234
            ]
        },
        {
            "mesh" : 0,
            "name" : "Cube.003",
            "scale" : [
                5.362242221832275,
                5.362242221832275,
                5.362242221832275
            ]
        }
    ],
    "materials" : [
        {
            "doubleSided" : true,
            "name" : "Material.009",
            "pbrMetallicRoughness" : {}
        },
        {
            "doubleSided" : true,
            "emissiveFactor" : [
                1,
                1,
                1
            ],
            "name" : "Material.017",
            "pbrMetallicRoughness" : {}
        },
        {
            "doubleSided" : true,
            "emissiveFactor" : [
                0.5850005149841309,
                1,
                1
            ],
            "name" : "Material.016",
            "pbrMetallicRoughness" : {}
        }
    ],
    "meshes" : [
        {
            "name" : "Cube.004",
            "primitives" : [
                {
                    "attributes" : {
                        "POSITION" : 0,
                        "NORMAL" : 1,
                        "TEXCOORD_0" : 2,
                        "COLOR_0" : 3
                    },
                    "indices" : 4,
                    "material" : 0
                },
                {
                    "attributes" : {
                        "POSITION" : 5,
                        "NORMAL" : 6,
                        "TEXCOORD_0" : 7,
                        "COLOR_0" : 8
                    },
                    "indices" : 9,
                    "material" : 1
                },
                {
                    "attributes" : {
                        "POSITION" : 10,
                        "NORMAL" : 11,
                        "TEXCOORD_0" : 12,
                        "COLOR_0" : 13
                    },
                    "indices" : 14,
                    "material" : 2
                }
            ]
        }
    ],
    "accessors" : [
        {
            "bufferView" : 0,
            "componentType" : 5126,
            "count" : 40514,
            "max" : [
                4.697505950927734,
                1.5501434803009033,
                6.757516860961914
            ],
            "min" : [
                -4.697505950927734,
                -0.81928950548172,
                -5.521164894104004
            ],
            "type" : "VEC3"
        },
        {
            "bufferView" : 1,
            "componentType" : 5126,
            "count" : 40514,
            "type" : "VEC3"
        },
        {
            "bufferView" : 2,
            "componentType" : 5126,
            "count" : 40514,
            "type" : "VEC2"
        },
        {
            "bufferView" : 3,
            "componentType" : 5123,
            "count" : 40514,
            "normalized" : true,
            "type" : "VEC4"
        },
        {
            "bufferView" : 4,
            "componentType" : 5123,
            "count" : 128778,
            "type" : "SCALAR"
        },
        {
            "bufferView" : 5,
            "componentType" : 5126,
            "count" : 52,
            "max" : [
                2.3441920280456543,
                1.2923890352249146,
                3.7246124744415283
            ],
            "min" : [
                -2.901907444000244,
                -0.3786056637763977,
                -1.3416385650634766
            ],
            "type" : "VEC3"
        },
        {
            "bufferView" : 6,
            "componentType" : 5126,
            "count" : 52,
            "type" : "VEC3"
        },
        {
            "bufferView" : 7,
            "componentType" : 5126,
            "count" : 52,
            "type" : "VEC2"
        },
        {
            "bufferView" : 8,
            "componentType" : 5123,
            "count" : 52,
            "normalized" : true,
            "type" : "VEC4"
        },
        {
            "bufferView" : 9,
            "componentType" : 5123,
            "count" : 120,
            "type" : "SCALAR"
        },
        {
            "bufferView" : 10,
            "componentType" : 5126,
            "count" : 192,
            "max" : [
                3.356132984161377,
                0.11730974912643433,
                -3.2357165813446045
            ],
            "min" : [
                -3.356132984161377,
                -0.09084707498550415,
                -4.175881385803223
            ],
            "type" : "VEC3"
        },
        {
            "bufferView" : 11,
            "componentType" : 5126,
            "count" : 192,
            "type" : "VEC3"
        },
        {
            "bufferView" : 12,
            "componentType" : 5126,
            "count" : 192,
            "type" : "VEC2"
        },
        {
            "bufferView" : 13,
            "componentType" : 5123,
            "count" : 192,
            "normalized" : true,
            "type" : "VEC4"
        },
        {
            "bufferView" : 14,
            "componentType" : 5123,
            "count" : 540,
            "type" : "SCALAR"
        }
    ],
    "bufferViews" : [
        {
            "buffer" : 0,
            "byteLength" : 486168,
            "byteOffset" : 0
        },
        {
            "buffer" : 0,
            "byteLength" : 486168,
            "byteOffset" : 486168
        },
        {
            "buffer" : 0,
            "byteLength" : 324112,
            "byteOffset" : 972336
        },
        {
            "buffer" : 0,
            "byteLength" : 324112,
            "byteOffset" : 1296448
        },
        {
            "buffer" : 0,
            "byteLength" : 257556,
            "byteOffset" : 1620560
        },
        {
            "buffer" : 0,
            "byteLength" : 624,
            "byteOffset" : 1878116
        },
        {
            "buffer" : 0,
            "byteLength" : 624,
            "byteOffset" : 1878740
        },
        {
            "buffer" : 0,
            "byteLength" : 416,
            "byteOffset" : 1879364
        },
        {
            "buffer" : 0,
            "byteLength" : 416,
            "byteOffset" : 1879780
        },
        {
            "buffer" : 0,
            "byteLength" : 240,
            "byteOffset" : 1880196
        },
        {
            "buffer" : 0,
            "byteLength" : 2304,
            "byteOffset" : 1880436
        },
        {
            "buffer" : 0,
            "byteLength" : 2304,
            "byteOffset" : 1882740
        },
        {
            "buffer" : 0,
            "byteLength" : 1536,
            "byteOffset" : 1885044
        },
        {
            "buffer" : 0,
            "byteLength" : 1536,
            "byteOffset" : 1886580
        },
        {
            "buffer" : 0,
            "byteLength" : 1080,
            "byteOffset" : 1888116
        }
    ],
    "buffers" : [
        {
            "byteLength" : 1889196,
            "uri" : "data:application/octet-stream;base64,"
        }
    ]
}
