{
    "asset" : {
        "generator" : "Khronos glTF Blender I/O v1.5.17",
        "version" : "2.0"
    },
    "scene" : 0,
    "scenes" : [
        {
            "name" : "Scene",
            "nodes" : [
                0,
                1,
                4
            ]
        }
    ],
    "nodes" : [
        {
            "name" : "Sun",
            "rotation" : [
                -0.2621029019355774,
                -0.05127476900815964,
                -0.12428472191095352,
                0.9556287527084351
            ],
            "translation" : [
                1.0085046291351318,
                3.8911547660827637,
                -3.887622117996216
            ]
        },
        {
            "mesh" : 0,
            "name" : "Plane",
            "scale" : [
                629.54638671875,
                629.54638671875,
                629.54638671875
            ],
            "translation" : [
                0,
                -1.4471436738967896,
                0
            ]
        },
        {
            "mesh" : 1,
            "name" : "Cube.000",
            "translation" : [
                0,
                1.5256032943725586,
                0.10145095735788345
            ]
        },
        {
            "mesh" : 2,
            "name" : "Cube.002"
        },
        {
            "children" : [
                2,
                3
            ],
            "mesh" : 3,
            "name" : "Cube.001"
        }
    ],
    "materials" : [
        {
            "doubleSided" : true,
            "name" : "Material",
            "pbrMetallicRoughness" : {}
        },
        {
            "doubleSided" : true,
            "name" : "Material.000",
            "pbrMetallicRoughness" : {}
        },
        {
            "doubleSided" : true,
            "name" : "Material.001",
            "pbrMetallicRoughness" : {}
        },
        {
            "doubleSided" : true,
            "name" : "ship.001",
            "pbrMetallicRoughness" : {}
        },
        {
            "doubleSided" : true,
            "emissiveFactor" : [
                0.6783062964677811,
                1,
                1
            ],
            "name" : "Material.005",
            "pbrMetallicRoughness" : {}
        },
        {
            "doubleSided" : true,
            "emissiveFactor" : [
                1,
                1,
                1
            ],
            "name" : "Material.009",
            "pbrMetallicRoughness" : {}
        },
        {
            "doubleSided" : true,
            "name" : "Material.002",
            "pbrMetallicRoughness" : {}
        },
        {
            "doubleSided" : true,
            "emissiveFactor" : [
                1,
                1,
                1
            ],
            "name" : "Material.003",
            "pbrMetallicRoughness" : {}
        },
        {
            "doubleSided" : true,
            "emissiveFactor" : [
                1,
                1,
                1
            ],
            "name" : "1111",
            "pbrMetallicRoughness" : {}
        }
    ],
    "meshes" : [
        {
            "name" : "Plane",
            "primitives" : [
                {
                    "attributes" : {
                        "POSITION" : 0,
                        "NORMAL" : 1
                    },
                    "indices" : 2,
                    "material" : 0
                }
            ]
        },
        {
            "name" : "Cube.000",
            "primitives" : [
                {
                    "attributes" : {
                        "POSITION" : 3,
                        "NORMAL" : 4,
                        "TEXCOORD_0" : 5,
                        "TEXCOORD_1" : 6
                    },
                    "indices" : 7,
                    "material" : 1
                },
                {
                    "attributes" : {
                        "POSITION" : 8,
                        "NORMAL" : 9,
                        "TEXCOORD_0" : 10,
                        "TEXCOORD_1" : 11
                    },
                    "indices" : 12,
                    "material" : 2
                }
            ]
        },
        {
            "name" : "Cube.004",
            "primitives" : [
                {
                    "attributes" : {
                        "POSITION" : 13,
                        "NORMAL" : 14,
                        "TEXCOORD_0" : 15,
                        "TEXCOORD_1" : 16,
                        "COLOR_0" : 17
                    },
                    "indices" : 18,
                    "material" : 3
                },
                {
                    "attributes" : {
                        "POSITION" : 19,
                        "NORMAL" : 20,
                        "TEXCOORD_0" : 21,
                        "TEXCOORD_1" : 22,
                        "COLOR_0" : 23
                    },
                    "indices" : 24,
                    "material" : 4
                },
                {
                    "attributes" : {
                        "POSITION" : 25,
                        "NORMAL" : 26,
                        "TEXCOORD_0" : 27,
                        "TEXCOORD_1" : 28,
                        "COLOR_0" : 29
                    },
                    "indices" : 30,
                    "material" : 5
                }
            ]
        },
        {
            "name" : "Cube.002",
            "primitives" : [
                {
                    "attributes" : {
                        "POSITION" : 31,
                        "NORMAL" : 32,
                        "TEXCOORD_0" : 33,
                        "TEXCOORD_1" : 34,
                        "COLOR_0" : 35
                    },
                    "indices" : 36,
                    "material" : 3
                },
                {
                    "attributes" : {
                        "POSITION" : 37,
                        "NORMAL" : 38,
                        "TEXCOORD_0" : 39,
                        "TEXCOORD_1" : 40,
                        "COLOR_0" : 41
                    },
                    "indices" : 42,
                    "material" : 6
                },
                {
                    "attributes" : {
                        "POSITION" : 43,
                        "NORMAL" : 44,
                        "TEXCOORD_0" : 45,
                        "TEXCOORD_1" : 46,
                        "COLOR_0" : 47
                    },
                    "indices" : 48,
                    "material" : 7
                },
                {
                    "attributes" : {
                        "POSITION" : 49,
                        "NORMAL" : 50,
                        "TEXCOORD_0" : 51,
                        "TEXCOORD_1" : 52,
                        "COLOR_0" : 53
                    },
                    "indices" : 54,
                    "material" : 8
                }
            ]
        }
    ],
    "accessors" : [
        {
            "bufferView" : 0,
            "componentType" : 5126,
            "count" : 4,
            "max" : [
                1,
                0,
                1
            ],
            "min" : [
                -1,
                0,
                -1
            ],
            "type" : "VEC3"
        },
        {
            "bufferView" : 1,
            "componentType" : 5126,
            "count" : 4,
            "type" : "VEC3"
        },
        {
            "bufferView" : 2,
            "componentType" : 5123,
            "count" : 6,
            "type" : "SCALAR"
        },
        {
            "bufferView" : 3,
            "componentType" : 5126,
            "count" : 662,
            "max" : [
                0.5437061786651611,
                0.007775474339723587,
                0.0009279828518629074
            ],
            "min" : [
                -0.5463836789131165,
                -1.4129818677902222,
                -3.0300774574279785
            ],
            "type" : "VEC3"
        },
        {
            "bufferView" : 4,
            "componentType" : 5126,
            "count" : 662,
            "type" : "VEC3"
        },
        {
            "bufferView" : 5,
            "componentType" : 5126,
            "count" : 662,
            "type" : "VEC2"
        },
        {
            "bufferView" : 6,
            "componentType" : 5126,
            "count" : 662,
            "type" : "VEC2"
        },
        {
            "bufferView" : 7,
            "componentType" : 5123,
            "count" : 1524,
            "type" : "SCALAR"
        },
        {
            "bufferView" : 8,
            "componentType" : 5126,
            "count" : 297,
            "max" : [
                0.5667110085487366,
                -0.18739837408065796,
                -0.0861840471625328
            ],
            "min" : [
                -0.5667110085487366,
                -1.4650423526763916,
                -3.007575750350952
            ],
            "type" : "VEC3"
        },
        {
            "bufferView" : 9,
            "componentType" : 5126,
            "count" : 297,
            "type" : "VEC3"
        },
        {
            "bufferView" : 10,
            "componentType" : 5126,
            "count" : 297,
            "type" : "VEC2"
        },
        {
            "bufferView" : 11,
            "componentType" : 5126,
            "count" : 297,
            "type" : "VEC2"
        },
        {
            "bufferView" : 12,
            "componentType" : 5123,
            "count" : 492,
            "type" : "SCALAR"
        },
        {
            "bufferView" : 13,
            "componentType" : 5126,
            "count" : 23096,
            "max" : [
                -0.005987080279737711,
                1.4203914403915405,
                2.432405710220337
            ],
            "min" : [
                -0.8773036003112793,
                -0.06997000426054001,
                -2.546945333480835
            ],
            "type" : "VEC3"
        },
        {
            "bufferView" : 14,
            "componentType" : 5126,
            "count" : 23096,
            "type" : "VEC3"
        },
        {
            "bufferView" : 15,
            "componentType" : 5126,
            "count" : 23096,
            "type" : "VEC2"
        },
        {
            "bufferView" : 16,
            "componentType" : 5126,
            "count" : 23096,
            "type" : "VEC2"
        },
        {
            "bufferView" : 17,
            "componentType" : 5123,
            "count" : 23096,
            "normalized" : true,
            "type" : "VEC4"
        },
        {
            "bufferView" : 18,
            "componentType" : 5123,
            "count" : 66516,
            "type" : "SCALAR"
        },
        {
            "bufferView" : 19,
            "componentType" : 5126,
            "count" : 7196,
            "max" : [
                -0.2056945115327835,
                1.3910045623779297,
                1.878600835800171
            ],
            "min" : [
                -0.8378219604492188,
                -0.039623524993658066,
                -2.6034586429595947
            ],
            "type" : "VEC3"
        },
        {
            "bufferView" : 20,
            "componentType" : 5126,
            "count" : 7196,
            "type" : "VEC3"
        },
        {
            "bufferView" : 21,
            "componentType" : 5126,
            "count" : 7196,
            "type" : "VEC2"
        },
        {
            "bufferView" : 22,
            "componentType" : 5126,
            "count" : 7196,
            "type" : "VEC2"
        },
        {
            "bufferView" : 23,
            "componentType" : 5123,
            "count" : 7196,
            "normalized" : true,
            "type" : "VEC4"
        },
        {
            "bufferView" : 24,
            "componentType" : 5123,
            "count" : 25488,
            "type" : "SCALAR"
        },
        {
            "bufferView" : 25,
            "componentType" : 5126,
            "count" : 8722,
            "max" : [
                -0.008158608339726925,
                1.4126365184783936,
                2.7160189151763916
            ],
            "min" : [
                -0.767632246017456,
                -0.09670639038085938,
                1.921921968460083
            ],
            "type" : "VEC3"
        },
        {
            "bufferView" : 26,
            "componentType" : 5126,
            "count" : 8722,
            "type" : "VEC3"
        },
        {
            "bufferView" : 27,
            "componentType" : 5126,
            "count" : 8722,
            "type" : "VEC2"
        },
        {
            "bufferView" : 28,
            "componentType" : 5126,
            "count" : 8722,
            "type" : "VEC2"
        },
        {
            "bufferView" : 29,
            "componentType" : 5123,
            "count" : 8722,
            "normalized" : true,
            "type" : "VEC4"
        },
        {
            "bufferView" : 30,
            "componentType" : 5123,
            "count" : 26718,
            "type" : "SCALAR"
        },
        {
            "bufferView" : 31,
            "componentType" : 5126,
            "count" : 2498,
            "max" : [
                4.855774022871628e-07,
                2.8554515838623047,
                3.211289405822754
            ],
            "min" : [
                -0.9731524586677551,
                -1.3556362390518188,
                -2.9461159706115723
            ],
            "type" : "VEC3"
        },
        {
            "bufferView" : 32,
            "componentType" : 5126,
            "count" : 2498,
            "type" : "VEC3"
        },
        {
            "bufferView" : 33,
            "componentType" : 5126,
            "count" : 2498,
            "type" : "VEC2"
        },
        {
            "bufferView" : 34,
            "componentType" : 5126,
            "count" : 2498,
            "type" : "VEC2"
        },
        {
            "bufferView" : 35,
            "componentType" : 5123,
            "count" : 2498,
            "normalized" : true,
            "type" : "VEC4"
        },
        {
            "bufferView" : 36,
            "componentType" : 5123,
            "count" : 4620,
            "type" : "SCALAR"
        },
        {
            "bufferView" : 37,
            "componentType" : 5126,
            "count" : 478,
            "max" : [
                1.8312512395368685e-07,
                1.5568568706512451,
                1.783361554145813
            ],
            "min" : [
                -0.8143319487571716,
                -0.43347442150115967,
                -2.9392471313476562
            ],
            "type" : "VEC3"
        },
        {
            "bufferView" : 38,
            "componentType" : 5126,
            "count" : 478,
            "type" : "VEC3"
        },
        {
            "bufferView" : 39,
            "componentType" : 5126,
            "count" : 478,
            "type" : "VEC2"
        },
        {
            "bufferView" : 40,
            "componentType" : 5126,
            "count" : 478,
            "type" : "VEC2"
        },
        {
            "bufferView" : 41,
            "componentType" : 5123,
            "count" : 478,
            "normalized" : true,
            "type" : "VEC4"
        },
        {
            "bufferView" : 42,
            "componentType" : 5123,
            "count" : 915,
            "type" : "SCALAR"
        },
        {
            "bufferView" : 43,
            "componentType" : 5126,
            "count" : 66,
            "max" : [
                6.871006917208433e-06,
                0.9926950931549072,
                -1.18239426612854
            ],
            "min" : [
                -0.1238897517323494,
                0.8446277976036072,
                -1.9905312061309814
            ],
            "type" : "VEC3"
        },
        {
            "bufferView" : 44,
            "componentType" : 5126,
            "count" : 66,
            "type" : "VEC3"
        },
        {
            "bufferView" : 45,
            "componentType" : 5126,
            "count" : 66,
            "type" : "VEC2"
        },
        {
            "bufferView" : 46,
            "componentType" : 5126,
            "count" : 66,
            "type" : "VEC2"
        },
        {
            "bufferView" : 47,
            "componentType" : 5123,
            "count" : 66,
            "normalized" : true,
            "type" : "VEC4"
        },
        {
            "bufferView" : 48,
            "componentType" : 5123,
            "count" : 156,
            "type" : "SCALAR"
        },
        {
            "bufferView" : 49,
            "componentType" : 5126,
            "count" : 108,
            "max" : [
                0,
                1.2332044839859009,
                0.1074228510260582
            ],
            "min" : [
                -0.39712661504745483,
                0.43877455592155457,
                -2.3185672760009766
            ],
            "type" : "VEC3"
        },
        {
            "bufferView" : 50,
            "componentType" : 5126,
            "count" : 108,
            "type" : "VEC3"
        },
        {
            "bufferView" : 51,
            "componentType" : 5126,
            "count" : 108,
            "type" : "VEC2"
        },
        {
            "bufferView" : 52,
            "componentType" : 5126,
            "count" : 108,
            "type" : "VEC2"
        },
        {
            "bufferView" : 53,
            "componentType" : 5123,
            "count" : 108,
            "normalized" : true,
            "type" : "VEC4"
        },
        {
            "bufferView" : 54,
            "componentType" : 5123,
            "count" : 216,
            "type" : "SCALAR"
        }
    ],
    "bufferViews" : [
        {
            "buffer" : 0,
            "byteLength" : 48,
            "byteOffset" : 0
        },
        {
            "buffer" : 0,
            "byteLength" : 48,
            "byteOffset" : 48
        },
        {
            "buffer" : 0,
            "byteLength" : 12,
            "byteOffset" : 96
        },
        {
            "buffer" : 0,
            "byteLength" : 7944,
            "byteOffset" : 108
        },
        {
            "buffer" : 0,
            "byteLength" : 7944,
            "byteOffset" : 8052
        },
        {
            "buffer" : 0,
            "byteLength" : 5296,
            "byteOffset" : 15996
        },
        {
            "buffer" : 0,
            "byteLength" : 5296,
            "byteOffset" : 21292
        },
        {
            "buffer" : 0,
            "byteLength" : 3048,
            "byteOffset" : 26588
        },
        {
            "buffer" : 0,
            "byteLength" : 3564,
            "byteOffset" : 29636
        },
        {
            "buffer" : 0,
            "byteLength" : 3564,
            "byteOffset" : 33200
        },
        {
            "buffer" : 0,
            "byteLength" : 2376,
            "byteOffset" : 36764
        },
        {
            "buffer" : 0,
            "byteLength" : 2376,
            "byteOffset" : 39140
        },
        {
            "buffer" : 0,
            "byteLength" : 984,
            "byteOffset" : 41516
        },
        {
            "buffer" : 0,
            "byteLength" : 277152,
            "byteOffset" : 42500
        },
        {
            "buffer" : 0,
            "byteLength" : 277152,
            "byteOffset" : 319652
        },
        {
            "buffer" : 0,
            "byteLength" : 184768,
            "byteOffset" : 596804
        },
        {
            "buffer" : 0,
            "byteLength" : 184768,
            "byteOffset" : 781572
        },
        {
            "buffer" : 0,
            "byteLength" : 184768,
            "byteOffset" : 966340
        },
        {
            "buffer" : 0,
            "byteLength" : 133032,
            "byteOffset" : 1151108
        },
        {
            "buffer" : 0,
            "byteLength" : 86352,
            "byteOffset" : 1284140
        },
        {
            "buffer" : 0,
            "byteLength" : 86352,
            "byteOffset" : 1370492
        },
        {
            "buffer" : 0,
            "byteLength" : 57568,
            "byteOffset" : 1456844
        },
        {
            "buffer" : 0,
            "byteLength" : 57568,
            "byteOffset" : 1514412
        },
        {
            "buffer" : 0,
            "byteLength" : 57568,
            "byteOffset" : 1571980
        },
        {
            "buffer" : 0,
            "byteLength" : 50976,
            "byteOffset" : 1629548
        },
        {
            "buffer" : 0,
            "byteLength" : 104664,
            "byteOffset" : 1680524
        },
        {
            "buffer" : 0,
            "byteLength" : 104664,
            "byteOffset" : 1785188
        },
        {
            "buffer" : 0,
            "byteLength" : 69776,
            "byteOffset" : 1889852
        },
        {
            "buffer" : 0,
            "byteLength" : 69776,
            "byteOffset" : 1959628
        },
        {
            "buffer" : 0,
            "byteLength" : 69776,
            "byteOffset" : 2029404
        },
        {
            "buffer" : 0,
            "byteLength" : 53436,
            "byteOffset" : 2099180
        },
        {
            "buffer" : 0,
            "byteLength" : 29976,
            "byteOffset" : 2152616
        },
        {
            "buffer" : 0,
            "byteLength" : 29976,
            "byteOffset" : 2182592
        },
        {
            "buffer" : 0,
            "byteLength" : 19984,
            "byteOffset" : 2212568
        },
        {
            "buffer" : 0,
            "byteLength" : 19984,
            "byteOffset" : 2232552
        },
        {
            "buffer" : 0,
            "byteLength" : 19984,
            "byteOffset" : 2252536
        },
        {
            "buffer" : 0,
            "byteLength" : 9240,
            "byteOffset" : 2272520
        },
        {
            "buffer" : 0,
            "byteLength" : 5736,
            "byteOffset" : 2281760
        },
        {
            "buffer" : 0,
            "byteLength" : 5736,
            "byteOffset" : 2287496
        },
        {
            "buffer" : 0,
            "byteLength" : 3824,
            "byteOffset" : 2293232
        },
        {
            "buffer" : 0,
            "byteLength" : 3824,
            "byteOffset" : 2297056
        },
        {
            "buffer" : 0,
            "byteLength" : 3824,
            "byteOffset" : 2300880
        },
        {
            "buffer" : 0,
            "byteLength" : 1830,
            "byteOffset" : 2304704
        },
        {
            "buffer" : 0,
            "byteLength" : 792,
            "byteOffset" : 2306536
        },
        {
            "buffer" : 0,
            "byteLength" : 792,
            "byteOffset" : 2307328
        },
        {
            "buffer" : 0,
            "byteLength" : 528,
            "byteOffset" : 2308120
        },
        {
            "buffer" : 0,
            "byteLength" : 528,
            "byteOffset" : 2308648
        },
        {
            "buffer" : 0,
            "byteLength" : 528,
            "byteOffset" : 2309176
        },
        {
            "buffer" : 0,
            "byteLength" : 312,
            "byteOffset" : 2309704
        },
        {
            "buffer" : 0,
            "byteLength" : 1296,
            "byteOffset" : 2310016
        },
        {
            "buffer" : 0,
            "byteLength" : 1296,
            "byteOffset" : 2311312
        },
        {
            "buffer" : 0,
            "byteLength" : 864,
            "byteOffset" : 2312608
        },
        {
            "buffer" : 0,
            "byteLength" : 864,
            "byteOffset" : 2313472
        },
        {
            "buffer" : 0,
            "byteLength" : 864,
            "byteOffset" : 2314336
        },
        {
            "buffer" : 0,
            "byteLength" : 432,
            "byteOffset" : 2315200
        }
    ],
    "buffers" : [
        {
            "byteLength" : 2315632,
            "uri" : "data:application/octet-stream;base64,"
        }
    ]
}
